<svg width="8" height="18" viewBox="0 0 8 18" fill="none" xmlns="http://www.w3.org/2000/svg">
<path d="M4.02857 13.1645C3.77785 12.946 3.57267 12.4951 3.57267 12.1624V0.604682C3.57267 0.272138 3.30066 0.00012207 2.96811 0.00012207H2.19267C1.86013 0.00012207 1.58811 0.272131 1.58811 0.604682L1.58798 12.1621C1.58798 12.4949 1.37463 12.9358 1.11401 13.1423C1.11401 13.1423 0 14.0245 0 14.8586C0 16.1463 1.13318 17.1903 2.53097 17.1903C3.92853 17.1903 5.06157 16.1462 5.06157 14.8586C5.06157 14.0645 4.02857 13.1643 4.02857 13.1643L4.02857 13.1645Z" fill="white"/>
<path d="M3.32172 3.35839C3.32172 3.69094 3.0497 3.96295 2.71715 3.96295H2.45236C2.11981 3.96295 1.84779 3.69094 1.84779 3.35839L1.84766 0.867194C1.84766 0.53465 2.11967 0.262634 2.45223 0.262634H2.71701C3.04956 0.262634 3.32159 0.534643 3.32159 0.867194L3.32172 3.35839Z" fill="white"/>
<path d="M6.59209 10.6013C6.59209 11.1723 6.12964 11.6349 5.5583 11.6349C4.98697 11.6349 4.52466 11.1725 4.52466 10.6013L5.54438 8.7406L6.59209 10.6013Z" fill="white"/>
<path d="M7.70475 12.2926C7.7014 12.624 7.4306 12.8899 7.09885 12.8867C6.76791 12.8837 6.5018 12.6128 6.50516 12.2812L7.10718 11.2071L7.70475 12.2926Z" fill="white"/>
<path d="M7.48691 9.64092C7.48517 9.83847 7.32351 9.99705 7.12611 9.99503C6.92883 9.99316 6.76983 9.83164 6.77199 9.63424L7.13122 8.99377L7.48691 9.64092Z" fill="white"/>
<path d="M4.0071 15.3375C3.98741 15.3372 4.00456 15.3371 4.04514 15.3371C4.08518 15.3371 3.998 15.5814 3.85094 15.8796L3.80299 15.9767C3.65621 16.275 3.31751 16.5193 3.05059 16.5193H2.56483H2.07948C1.81255 16.5193 1.47385 16.275 1.3268 15.9767L1.27885 15.8796C1.1318 15.5814 1.04501 15.3371 1.08573 15.3371C1.12671 15.3371 1.43219 15.3371 1.76476 15.3374L3.4386 15.3376C3.77087 15.3376 4.02694 15.3375 4.00713 15.3375H4.0071Z" fill="white"/>
<path d="M2.34489 15.0755C1.95958 15.0533 1.73926 14.929 1.54212 14.5552C1.34498 14.181 1.36868 14.0372 1.56757 13.5997L1.57975 13.6011C2.04395 13.6842 2.17478 13.7483 2.36967 14.1197C2.56748 14.4932 2.54485 14.7457 2.34475 15.0753" fill="white"/>
<path d="M2.79623 14.0099C2.62453 14.0002 2.52636 13.9447 2.43862 13.7783C2.3509 13.6119 2.36134 13.5476 2.45014 13.3529L2.45523 13.3533C2.66202 13.3904 2.72042 13.4192 2.80681 13.5843C2.89467 13.7505 2.88462 13.8632 2.79556 14.01" fill="white"/>
<path d="M3.01788 15.0756C2.84257 14.8603 2.80159 14.6826 2.90458 14.3962C3.0081 14.1098 3.09596 14.0529 3.42489 13.946L3.42958 13.9535C3.61118 14.2403 3.63997 14.341 3.53819 14.6246C3.43534 14.911 3.28989 15.021 3.01788 15.0748" fill="white"/>
</svg>
